<svg width="100" height="100" viewBox="0 0 100 100" fill="none" xmlns="http://www.w3.org/2000/svg">
<path d="M45.8333 16.6667H54.1667M50 70.8333V70.875M25 20.8333C25 18.6232 25.878 16.5036 27.4408 14.9408C29.0036 13.378 31.1232 12.5 33.3333 12.5H66.6667C68.8768 12.5 70.9964 13.378 72.5592 14.9408C74.122 16.5036 75 18.6232 75 20.8333V79.1667C75 81.3768 74.122 83.4964 72.5592 85.0592C70.9964 86.622 68.8768 87.5 66.6667 87.5H33.3333C31.1232 87.5 29.0036 86.622 27.4408 85.0592C25.878 83.4964 25 81.3768 25 79.1667V20.8333Z" stroke="white" stroke-width="5" stroke-linecap="round" stroke-linejoin="round"/>
</svg>
