<svg width="106" height="106" viewBox="0 0 106 106" fill="none" xmlns="http://www.w3.org/2000/svg">
<path d="M3 103L24.875 81.125M71.75 3L49.875 24.875M103 34.25L81.125 56.125M39.1562 15.5L90.5 66.8438L77.6625 79.6812C74.3158 83.1619 70.3086 85.9401 65.8752 87.8533C61.4419 89.7666 56.6715 90.7764 51.8431 90.8238C47.0148 90.8711 42.2255 89.9551 37.7555 88.1291C33.2854 86.3032 29.2245 83.6042 25.8102 80.1898C22.3958 76.7755 19.6968 72.7145 17.8709 68.2445C16.0449 63.7745 15.1289 58.9852 15.1762 54.1569C15.2236 49.3285 16.2334 44.5581 18.1467 40.1248C20.0599 35.6914 22.8381 31.6842 26.3187 28.3375L39.1562 15.5Z" stroke="white" stroke-width="5" stroke-linecap="round" stroke-linejoin="round"/>
</svg>
