<svg width="100" height="100" viewBox="0 0 100 100" fill="none" xmlns="http://www.w3.org/2000/svg">
<path d="M29.1667 41.6667V58.3334M41.6667 41.6667V58.3334M54.1667 41.6667V58.3334M66.6667 41.6667V58.3334M25 29.1667H70.8333C73.0435 29.1667 75.1631 30.0447 76.7259 31.6075C78.2887 33.1703 79.1667 35.2899 79.1667 37.5V39.5834C79.1667 40.1359 79.3862 40.6658 79.7769 41.0565C80.1676 41.4472 80.6975 41.6667 81.25 41.6667C81.8025 41.6667 82.3324 41.8862 82.7231 42.2769C83.1138 42.6676 83.3333 43.1975 83.3333 43.75V56.25C83.3333 56.8026 83.1138 57.3325 82.7231 57.7232C82.3324 58.1139 81.8025 58.3334 81.25 58.3334C80.6975 58.3334 80.1676 58.5528 79.7769 58.9435C79.3862 59.3342 79.1667 59.8642 79.1667 60.4167V62.5C79.1667 64.7102 78.2887 66.8298 76.7259 68.3926C75.1631 69.9554 73.0435 70.8334 70.8333 70.8334H25C22.7899 70.8334 20.6702 69.9554 19.1074 68.3926C17.5446 66.8298 16.6667 64.7102 16.6667 62.5V37.5C16.6667 35.2899 17.5446 33.1703 19.1074 31.6075C20.6702 30.0447 22.7899 29.1667 25 29.1667Z" stroke="white" stroke-width="5" stroke-linecap="round" stroke-linejoin="round"/>
</svg>
