<svg width="100" height="100" viewBox="0 0 100 100" fill="none" xmlns="http://www.w3.org/2000/svg">
<path d="M70.8333 70.8333V79.1667C70.8333 81.3768 69.9554 83.4964 68.3926 85.0592C66.8297 86.622 64.7101 87.5 62.5 87.5H20.8333C18.6232 87.5 16.5036 86.622 14.9408 85.0592C13.378 83.4964 12.5 81.3768 12.5 79.1667V37.5C12.5 35.2899 13.378 33.1702 14.9408 31.6074C16.5036 30.0446 18.6232 29.1667 20.8333 29.1667H29.1667M50 33.3333C50 31.1232 50.878 29.0036 52.4408 27.4408C54.0036 25.878 56.1232 25 58.3333 25C60.5435 25 62.6631 25.878 64.2259 27.4408C65.7887 29.0036 66.6667 31.1232 66.6667 33.3333C66.6667 35.7958 64.9292 38.825 63.2667 41.075L50 58.3375H66.6667M29.1667 20.8333C29.1667 18.6232 30.0446 16.5036 31.6074 14.9408C33.1702 13.378 35.2899 12.5 37.5 12.5H79.1667C81.3768 12.5 83.4964 13.378 85.0592 14.9408C86.622 16.5036 87.5 18.6232 87.5 20.8333V62.5C87.5 64.7101 86.622 66.8297 85.0592 68.3926C83.4964 69.9554 81.3768 70.8333 79.1667 70.8333H37.5C35.2899 70.8333 33.1702 69.9554 31.6074 68.3926C30.0446 66.8297 29.1667 64.7101 29.1667 62.5V20.8333Z" stroke="white" stroke-width="5" stroke-linecap="round" stroke-linejoin="round"/>
</svg>
