<svg width="100" height="100" viewBox="0 0 100 100" fill="none" xmlns="http://www.w3.org/2000/svg">
<path d="M29.1667 29.1667H25C22.7899 29.1667 20.6702 30.0447 19.1074 31.6075C17.5446 33.1703 16.6667 35.2899 16.6667 37.5V75C16.6667 77.2102 17.5446 79.3298 19.1074 80.8926C20.6702 82.4554 22.7899 83.3334 25 83.3334H62.5C64.7101 83.3334 66.8297 82.4554 68.3925 80.8926C69.9553 79.3298 70.8333 77.2102 70.8333 75V70.8334M66.6667 20.8334L79.1667 33.3334M84.9375 27.4375C86.5785 25.7964 87.5004 23.5707 87.5004 21.25C87.5004 18.9292 86.5785 16.7035 84.9375 15.0625C83.2965 13.4214 81.0707 12.4995 78.75 12.4995C76.4292 12.4995 74.2035 13.4214 72.5625 15.0625L37.5 50V62.5H50L84.9375 27.4375Z" stroke="white" stroke-width="5" stroke-linecap="round" stroke-linejoin="round"/>
</svg>
